<?xml version="1.0" standalone="no"?>
<!DOCTYPE svg PUBLIC "-//W3C//DTD SVG 20010904//EN"
 "http://www.w3.org/TR/2001/REC-SVG-20010904/DTD/svg10.dtd">
<svg version="1.0" xmlns="http://www.w3.org/2000/svg"
 width="2100.000000pt" height="1500.000000pt" viewBox="0 0 2100.000000 1500.000000"
 preserveAspectRatio="xMidYMid meet">

<g transform="translate(0.000000,1500.000000) scale(0.100000,-0.100000)"
fill="#000000" stroke="none">
<path d="M10340 12434 c-482 -22 -928 -99 -1350 -236 -294 -95 -674 -263 -935
-413 -210 -120 -522 -336 -678 -469 l-66 -56 -1114 0 c-1230 0 -1182 2 -1244
-62 -45 -48 -56 -76 -56 -139 0 -57 1 -59 500 -923 l500 -867 -44 -127 c-65
-185 -118 -372 -158 -556 -20 -88 -38 -171 -40 -183 -5 -22 -3 -23 69 -23 55
0 79 -4 95 -18 21 -16 57 -111 97 -254 9 -32 20 -56 24 -53 4 3 11 35 15 72
19 187 135 705 165 736 4 5 71 -103 150 -240 78 -136 143 -248 144 -248 0 0
101 2 224 5 l222 5 -280 487 -281 487 74 153 c220 450 491 834 851 1205 l138
143 3143 0 3143 0 138 -143 c342 -352 598 -709 816 -1135 l78 -154 -32 -56
c-18 -32 -153 -266 -300 -521 -147 -256 -268 -466 -268 -468 0 -2 102 -2 226
-1 l226 3 159 275 c87 151 163 276 168 278 17 6 114 -339 151 -533 l12 -60 54
-24 c146 -64 243 -214 259 -398 17 -191 -34 -333 -160 -451 -41 -39 -75 -73
-75 -76 0 -3 22 -33 49 -67 28 -34 94 -146 148 -250 96 -185 98 -187 104 -151
30 172 41 708 20 967 -36 426 -131 874 -266 1250 -26 72 -52 146 -57 165 -11
36 -6 45 459 851 259 448 476 832 482 854 15 56 -2 124 -45 174 -64 75 -3 71
-1216 71 l-1079 0 -66 56 c-100 85 -271 210 -433 317 -601 394 -1276 649
-1991 751 -270 39 -642 60 -869 50z m435 -344 c811 -50 1592 -309 2255 -749
l115 -76 -1317 -3 c-724 -1 -1912 -1 -2640 0 l-1323 3 115 76 c815 541 1811
808 2795 749z m-3982 -1341 c-239 -272 -472 -608 -635 -917 -34 -62 -64 -110
-69 -105 -4 4 -154 261 -333 571 l-324 562 729 0 729 0 -97 -111z m8410 -416
c-167 -291 -309 -532 -315 -538 -7 -7 -12 -7 -14 0 -16 43 -168 293 -269 445
-138 207 -243 344 -388 509 l-97 111 694 0 694 0 -305 -527z"/>
<path d="M4260 8323 c-169 -26 -319 -94 -420 -189 -163 -154 -232 -340 -232
-624 0 -279 61 -448 222 -610 120 -121 256 -178 480 -201 400 -42 706 95 851
383 124 246 112 681 -26 908 -106 174 -278 286 -500 325 -80 14 -308 19 -375
8z m308 -404 c34 -16 73 -45 88 -62 81 -96 112 -269 83 -473 -29 -213 -130
-314 -315 -314 -155 0 -263 92 -305 260 -17 68 -18 286 -1 357 27 119 84 196
176 239 40 19 68 24 132 24 70 0 89 -4 142 -31z"/>
<path d="M5250 8294 c0 -4 129 -347 286 -763 158 -416 291 -768 296 -784 l10
-27 270 2 270 3 284 765 c157 421 287 775 290 788 l6 22 -252 -2 -252 -3 -162
-525 c-89 -289 -167 -537 -172 -553 -8 -23 -30 39 -157 445 -81 260 -159 510
-174 556 l-25 82 -259 0 c-143 0 -259 -3 -259 -6z"/>
<path d="M7110 7510 l0 -790 670 0 670 0 0 185 0 185 -420 0 -420 0 0 150 0
150 380 0 380 0 0 165 0 165 -380 0 -380 0 0 120 0 120 410 0 410 0 0 170 0
170 -660 0 -660 0 0 -790z"/>
<path d="M8710 7510 l0 -790 250 0 250 0 0 320 0 320 38 0 c51 -1 114 -31 146
-71 15 -19 92 -153 170 -299 l144 -265 281 -3 c155 -1 281 0 281 3 0 15 -257
495 -283 530 -58 76 -102 117 -151 141 -31 14 -44 25 -35 28 171 60 246 122
305 251 37 80 45 225 19 321 -32 117 -116 216 -222 261 -90 37 -172 42 -690
43 l-503 0 0 -790z m851 443 c90 -40 108 -167 32 -235 -33 -30 -129 -48 -260
-48 l-123 0 0 156 0 156 153 -4 c125 -4 160 -8 198 -25z"/>
<path d="M10280 8100 l0 -200 250 0 250 0 0 -590 0 -590 250 0 250 0 0 590 0
590 250 0 250 0 0 200 0 200 -750 0 -750 0 0 -200z"/>
<path d="M11990 7776 c0 -522 0 -524 24 -620 32 -124 73 -199 152 -279 118
-118 228 -159 479 -179 246 -19 460 15 575 92 127 85 220 215 262 367 21 74
22 103 26 611 l4 532 -251 0 -250 0 -3 -527 c-3 -519 -3 -529 -25 -568 -43
-81 -109 -123 -206 -132 -93 -8 -170 17 -224 73 -73 75 -73 78 -73 651 l0 503
-245 0 -245 0 0 -524z"/>
<path d="M13820 7510 l0 -790 250 0 250 0 0 320 0 320 33 0 c56 0 106 -20 139
-54 18 -19 100 -158 182 -310 l150 -276 279 0 c218 0 278 3 275 13 -6 24 -232
453 -262 497 -51 76 -119 142 -168 165 -46 21 -53 35 -18 35 39 0 158 71 209
125 64 68 97 138 111 234 29 205 -56 384 -216 458 -107 49 -166 53 -710 53
l-504 0 0 -790z m852 448 c90 -39 111 -164 39 -232 -41 -39 -121 -56 -268 -56
l-123 0 0 156 0 156 158 -4 c113 -3 167 -9 194 -20z"/>
<path d="M15530 7510 l0 -790 670 0 670 0 0 185 0 185 -425 0 -425 0 0 150 0
150 380 0 380 0 0 165 0 165 -380 0 -380 0 0 120 0 120 410 0 410 0 0 170 0
170 -655 0 -655 0 0 -790z"/>
<path d="M6913 7908 c-45 -123 -84 -228 -85 -234 -2 -6 42 -89 97 -185 l100
-174 3 388 c2 369 -1 427 -26 427 -4 0 -44 -100 -89 -222z"/>
<path d="M13664 7666 l-71 -122 -6 -170 c-9 -269 -60 -413 -194 -549 -85 -86
-153 -131 -249 -165 l-76 -27 -285 -494 c-285 -493 -539 -957 -530 -966 9 -8
421 47 445 60 15 8 198 315 532 896 l510 884 -2 388 -3 387 -71 -122z"/>
<path d="M5594 7055 c7 -72 56 -439 60 -440 17 -6 344 10 340 16 -3 5 -46 9
-95 9 -80 0 -92 2 -112 23 -13 12 -58 117 -106 242 -45 121 -85 222 -88 225
-3 3 -2 -31 1 -75z"/>
<path d="M15015 6628 c-2 -7 -11 -49 -20 -93 -67 -327 -213 -746 -373 -1068
l-67 -134 112 -6 c82 -4 124 -11 158 -26 26 -12 55 -21 65 -21 12 0 35 37 78
128 116 244 230 556 301 822 25 95 91 387 91 405 0 3 -77 5 -170 5 -128 0
-172 -3 -175 -12z"/>
<path d="M9376 6609 c-10 -6 -69 -13 -130 -16 -61 -2 -266 -10 -456 -18 -778
-33 -775 -33 -980 -21 -69 4 -152 9 -185 10 -33 2 -71 9 -84 16 -19 9 -57 11
-155 6 -170 -9 -261 -23 -312 -47 -40 -19 -60 -20 -540 -14 -275 3 -578 7
-674 8 -100 1 -203 -4 -240 -10 -42 -8 -272 -14 -660 -18 -327 -3 -617 -8
-643 -12 -61 -7 -111 -40 -115 -75 -3 -23 1 -27 35 -32 21 -3 92 -8 158 -12
66 -3 123 -8 126 -10 3 -1 82 -6 175 -9 93 -4 180 -8 193 -10 12 -2 68 -5 123
-6 107 -2 159 -12 196 -40 13 -10 66 -27 119 -40 79 -18 113 -20 183 -15 121
10 254 14 575 17 248 3 285 1 328 -14 141 -52 168 -55 572 -55 209 1 582 -5
829 -12 422 -11 451 -13 489 -33 l40 -21 161 18 c89 10 233 21 321 24 l160 5
-34 -39 c-19 -22 -96 -107 -172 -189 -287 -314 -499 -578 -621 -776 -78 -124
-77 -136 10 -220 37 -36 95 -89 129 -118 60 -51 64 -52 96 -42 26 9 44 28 82
89 111 177 262 381 389 527 112 129 378 415 385 415 4 0 35 35 69 78 90 114
228 262 305 329 l68 58 -4 52 c-2 37 -13 68 -36 104 -25 41 -30 58 -25 85 5
30 4 34 -14 34 -11 0 -23 8 -27 19 -6 20 -31 27 -127 36 -40 4 -70 1 -82 -6z"/>
<path d="M11290 6384 c-87 -24 -146 -54 -320 -168 -331 -217 -395 -295 -324
-397 28 -41 69 -62 159 -78 123 -23 124 -23 238 92 96 97 221 199 277 227 25
12 25 12 5 -8 -11 -10 -157 -146 -324 -301 l-303 -282 -34 37 c-19 20 -34 40
-34 44 0 4 -12 20 -27 36 -23 24 -35 29 -77 29 -28 1 -81 2 -118 3 l-68 2 19
48 c11 26 42 98 70 161 28 62 51 122 51 132 0 48 -169 159 -221 146 -20 -5
-40 -44 -126 -244 l-101 -238 -151 -3 c-83 -1 -151 0 -151 2 0 3 45 75 99 160
108 166 201 326 201 342 0 17 -110 133 -141 149 -38 20 -92 19 -111 -2 -8 -10
-76 -118 -151 -241 -76 -123 -178 -277 -228 -343 -111 -147 -111 -146 1 -253
104 -99 116 -102 318 -89 86 6 158 9 160 8 2 -1 -23 -45 -54 -96 -81 -132
-126 -240 -132 -316 -4 -50 -2 -63 9 -63 8 0 20 -9 27 -20 7 -11 23 -20 36
-20 13 0 29 -7 37 -16 20 -25 69 -46 93 -40 15 4 29 25 48 73 24 60 81 165
237 441 l41 72 187 0 186 0 -44 -38 c-24 -22 -100 -84 -169 -139 -157 -126
-220 -187 -220 -212 0 -37 50 -78 167 -137 l117 -59 91 1 c194 2 849 155 903
211 27 29 28 43 2 43 -17 0 -19 5 -14 50 4 49 4 50 -23 51 -24 2 -25 2 -5 6
35 7 27 33 -10 34 -24 1 -27 3 -10 6 12 2 22 10 22 18 0 23 -132 29 -275 11
-71 -8 -130 -14 -131 -13 -3 5 339 312 466 416 326 271 510 458 510 519 0 26
-118 134 -202 185 -98 59 -170 77 -307 76 -69 0 -138 -6 -171 -15z"/>
<path d="M12326 6319 c-41 -10 -101 -54 -291 -215 -192 -162 -355 -349 -316
-362 7 -2 26 -17 42 -33 16 -16 40 -29 52 -29 16 0 34 -15 57 -45 19 -25 42
-45 52 -45 25 0 18 -15 -102 -226 -56 -98 -127 -226 -158 -284 -30 -58 -60
-110 -66 -115 -41 -37 -86 -137 -86 -191 0 -35 33 -57 72 -48 18 5 44 9 58 9
14 1 59 8 100 17 118 27 435 39 660 27 36 -2 79 0 95 4 17 4 59 10 95 14 36 3
89 14 119 24 70 24 78 24 137 -7 48 -25 51 -25 204 -19 150 7 235 14 370 34
36 6 160 15 275 21 125 6 246 19 300 30 50 10 128 22 175 26 47 3 88 8 91 10
3 2 55 6 116 10 109 6 146 0 165 -29 4 -6 24 -11 45 -10 21 0 94 1 163 2 69 1
181 11 250 21 69 11 217 29 330 40 236 24 359 44 392 61 35 19 186 38 353 46
120 5 152 9 162 22 9 13 34 16 135 16 73 1 155 8 203 17 44 9 97 20 118 23 31
5 37 10 37 30 0 24 -12 31 -50 27 -8 -1 -172 -4 -365 -7 -192 -3 -396 -9 -453
-13 -83 -6 -105 -5 -117 7 -12 12 -88 15 -457 17 -442 2 -443 2 -493 25 -49
23 -59 24 -363 27 -202 3 -323 0 -340 -7 -35 -13 -118 -21 -272 -26 -69 -3
-136 -7 -150 -9 -22 -5 -146 -17 -175 -18 -5 0 -38 5 -73 13 -56 12 -89 10
-330 -14 -147 -15 -384 -43 -527 -62 -143 -19 -304 -35 -358 -35 l-99 0 87
168 c129 247 297 556 397 731 52 92 88 166 88 183 0 21 -11 36 -53 67 -100 76
-206 104 -301 80z"/>
<path d="M5793 6173 c-18 -2 -33 -8 -33 -13 0 -15 92 -294 130 -395 333 -874
908 -1642 1645 -2195 263 -197 505 -346 800 -492 391 -193 843 -343 1259 -419
127 -23 129 -24 151 -59 13 -19 143 -244 290 -500 148 -256 282 -480 299 -498
43 -46 111 -65 179 -51 41 9 61 21 92 54 24 25 155 243 320 529 201 350 285
488 300 491 11 2 85 16 165 30 299 53 648 152 945 270 158 62 530 245 675 332
556 333 1042 765 1419 1262 91 121 191 263 191 273 0 3 -23 8 -51 10 -29 3
-62 14 -79 26 -27 20 -34 21 -132 12 -56 -5 -106 -9 -110 -10 -4 0 -35 -37
-69 -82 -185 -244 -470 -548 -690 -735 -543 -461 -1177 -789 -1863 -963 -170
-43 -186 -45 -186 -31 0 5 215 382 478 838 l478 828 -60 13 c-59 13 -139 12
-321 -4 l-70 -6 -498 -863 c-273 -474 -503 -869 -510 -879 -21 -28 -361 -43
-652 -27 -126 6 -242 14 -256 17 -23 5 -109 149 -655 1095 -624 1080 -629
1089 -646 1067 -26 -33 -203 -299 -215 -323 -9 -17 65 -151 483 -875 272 -470
494 -858 494 -862 0 -15 -36 -8 -196 36 -573 160 -1083 410 -1549 760 -333
250 -678 598 -929 936 -287 386 -526 846 -672 1293 l-38 117 -141 -2 c-77 0
-155 -3 -172 -5z m4927 -3603 c-1 -18 -240 -415 -250 -415 -11 0 -250 398
-250 416 0 4 112 6 250 5 137 0 250 -3 250 -6z"/>
<path d="M7744 6072 c13 -25 416 -724 420 -729 1 -2 25 28 52 65 27 37 84 111
127 164 42 54 77 101 77 104 0 4 -52 98 -116 209 l-117 202 -150 6 c-83 4
-186 7 -229 7 l-79 0 15 -28z"/>
</g>
</svg>
